<?xml version="1.0" standalone="no"?>
<!DOCTYPE svg PUBLIC "-//W3C//DTD SVG 20010904//EN"
 "http://www.w3.org/TR/2001/REC-SVG-20010904/DTD/svg10.dtd">
<svg version="1.0" xmlns="http://www.w3.org/2000/svg"
 width="1000.000000pt" height="1000.000000pt" viewBox="0 0 1000.000000 1000.000000"
 preserveAspectRatio="xMidYMid meet">

<g transform="translate(0.000000,1000.000000) scale(0.100000,-0.100000)"
fill="#000000" stroke="none">
<path d="M4655 7880 c-296 -30 -557 -99 -827 -220 -182 -81 -426 -235 -573
-361 -33 -28 -109 -83 -170 -123 -145 -96 -236 -182 -363 -346 -303 -390 -479
-770 -573 -1236 l-32 -158 7 -250 c3 -138 9 -271 14 -296 l8 -45 7 41 c7 43
73 184 86 184 4 0 18 -44 30 -97 27 -116 142 -525 170 -603 17 -48 20 -51 20
-24 1 17 -8 138 -20 270 -37 421 -9 741 97 1107 151 520 486 996 942 1340 51
39 100 83 108 99 18 35 69 68 105 68 64 0 257 84 370 161 143 97 253 126 534
142 535 31 938 -30 1380 -210 145 -59 386 -185 455 -239 87 -67 122 -109 391
-469 l255 -340 71 -165 c39 -91 99 -234 134 -318 72 -178 80 -179 87 -14 l5
104 48 -48 c27 -27 49 -46 49 -42 0 36 -37 198 -64 281 -38 116 -80 204 -137
289 -22 31 -54 90 -73 130 -44 97 -57 113 -314 402 -122 137 -222 255 -222
261 0 21 -44 54 -115 86 -90 40 -165 89 -224 144 -40 38 -71 53 -223 109 -97
35 -186 71 -197 78 -28 17 -27 44 2 52 19 5 13 11 -43 43 -182 102 -415 176
-645 203 -128 15 -454 20 -560 10z"/>
<path d="M4004 6242 c-94 -58 -169 -117 -257 -205 l-81 -81 53 -47 c111 -103
509 -324 700 -389 263 -90 528 -102 808 -38 l92 21 37 86 c20 47 77 166 126
265 85 169 88 179 72 197 -28 31 -48 31 -151 1 -288 -86 -576 -88 -858 -7
-103 30 -301 122 -405 189 -39 25 -72 46 -73 46 -1 -1 -29 -17 -63 -38z"/>
<path d="M5817 6240 c-21 -18 -37 -38 -37 -45 0 -7 -14 -18 -30 -25 -43 -18
-68 -54 -76 -108 -8 -56 -41 -124 -102 -212 -160 -230 -230 -693 -156 -1034 8
-39 18 -85 21 -103 5 -29 12 -33 82 -58 103 -37 271 -121 356 -178 l70 -47 12
27 c15 35 16 133 3 204 -18 95 -40 380 -40 527 0 139 1 145 34 232 49 125 127
282 202 406 l64 106 -35 67 c-41 78 -124 181 -185 230 -34 27 -55 36 -95 39
-47 4 -55 1 -88 -28z"/>
<path d="M7633 5838 c-7 -26 -5 -47 14 -102 42 -126 63 -265 62 -409 -2 -228
-1 -229 -119 110 -57 166 -106 301 -108 299 -1 -2 4 -68 13 -147 22 -195 21
-586 0 -779 -63 -554 -324 -1135 -679 -1510 -379 -399 -860 -646 -1511 -775
-71 -14 -170 -30 -220 -35 -191 -20 -535 -6 -595 25 -14 7 -36 25 -49 39 -20
21 -33 26 -76 26 -62 0 -155 23 -215 53 -393 200 -591 336 -815 561 -198 198
-349 404 -460 626 -26 52 -62 115 -80 140 -48 65 -77 160 -76 246 l1 72 -46
42 c-81 74 -122 42 -109 -85 l6 -60 -50 50 -51 49 0 -50 c0 -48 31 -152 94
-317 38 -100 193 -411 243 -487 51 -79 99 -130 221 -235 105 -90 201 -200 287
-327 53 -77 66 -90 120 -117 34 -16 88 -37 121 -46 32 -10 106 -41 164 -70 58
-29 151 -69 208 -90 109 -41 126 -56 141 -129 6 -25 17 -33 76 -58 334 -137
766 -196 1135 -154 421 48 947 234 1300 459 300 192 593 480 774 761 206 319
345 662 441 1091 59 260 41 668 -45 1030 -30 127 -87 315 -99 328 -5 4 -12 -7
-18 -25z"/>
<path d="M3981 5591 c-16 -55 -14 -87 16 -229 22 -108 26 -153 27 -302 1 -149
-2 -190 -22 -279 -50 -220 -140 -409 -285 -595 l-46 -59 42 -51 c23 -28 91
-102 152 -164 106 -109 112 -113 161 -118 39 -5 59 -2 92 15 37 19 92 76 92
95 0 5 24 49 54 99 225 384 319 783 289 1230 l-6 97 -131 66 c-72 37 -194 103
-271 147 -77 44 -143 81 -146 83 -3 2 -11 -14 -18 -35z"/>
<path d="M4670 5243 c0 -130 -17 -310 -40 -433 l-10 -54 37 -38 38 -38 70 21
c57 17 96 22 205 22 109 0 148 -5 205 -22 l70 -21 37 38 38 37 -21 70 c-31
102 -31 300 -1 405 l22 75 -37 37 -38 36 -75 -20 c-133 -38 -362 -29 -485 18
-13 5 -15 -12 -15 -133z"/>
<path d="M2195 4555 c6 -216 16 -262 71 -316 l44 -43 0 48 c0 26 -14 94 -32
149 -17 56 -44 149 -60 207 l-28 105 5 -150z"/>
<path d="M4748 4613 l-77 -4 -57 -107 c-31 -59 -88 -172 -125 -252 -67 -143
-67 -145 -51 -173 27 -45 37 -50 69 -34 54 28 137 37 332 37 253 0 383 -19
596 -86 100 -32 266 -110 364 -171 l74 -46 65 34 c83 44 188 141 242 225 l44
66 -25 46 c-13 26 -49 72 -79 103 -46 47 -81 69 -200 127 -238 116 -450 183
-680 216 -112 16 -365 26 -492 19z"/>
<path d="M4870 3588 c0 -37 38 -126 62 -146 14 -11 19 -8 37 16 37 52 44 82
25 109 -16 26 -70 53 -104 53 -16 0 -20 -6 -20 -32z"/>
<path d="M4615 3412 c-7 -89 0 -420 8 -428 1 -1 43 6 92 17 50 11 147 22 218
26 70 3 127 9 127 13 0 34 -125 320 -140 320 -16 0 -42 -112 -47 -197 l-6 -93
-73 0 c-72 0 -72 0 -79 29 -8 38 10 137 31 170 9 14 28 38 42 54 l26 27 -54
55 c-29 30 -72 68 -96 84 l-42 31 -7 -108z"/>
<path d="M4215 3373 c-10 -70 -51 -221 -73 -273 -19 -45 -19 -45 2 -77 12 -18
23 -33 26 -33 5 0 95 117 143 184 12 18 47 -32 47 -68 0 -18 -7 -41 -15 -52
-21 -28 -19 -31 30 -49 55 -22 103 -15 156 20 l39 25 -26 58 c-57 129 -146
227 -255 283 -32 16 -60 29 -63 29 -2 0 -7 -21 -11 -47z"/>
<path d="M5239 3398 c-15 -11 -47 -23 -73 -25 l-46 -6 0 -124 c0 -141 18 -405
29 -436 7 -19 11 -16 35 25 15 25 29 68 33 96 l6 50 91 4 c112 6 202 35 198
64 -1 10 -23 90 -49 176 l-46 157 -48 20 c-60 26 -96 26 -130 -1z"/>
<path d="M5689 3398 c-15 -11 -47 -23 -72 -25 l-46 -5 -8 -57 c-39 -290 70
-391 318 -293 82 33 81 34 -46 47 -76 8 -135 23 -135 35 0 9 34 15 151 25 65
6 67 7 73 37 17 84 -3 167 -51 210 -53 48 -141 60 -184 26z"/>
</g>
</svg>
